<?xml version="1.0" encoding="UTF-8"?>
<svg version="1.1" xmlns="http://www.w3.org/2000/svg" width="1124" height="1124">
<path d="M0 0 C4.07572497 0.01027357 8.1513916 -0.00294228 12.22710796 -0.01297333 C19.34966665 -0.02733428 26.47210379 -0.02703514 33.59466787 -0.01678469 C44.1865904 -0.00158312 54.77841139 -0.00942668 65.37033335 -0.02161792 C84.2932905 -0.04262914 103.21619348 -0.040876 122.13915572 -0.02930227 C138.69935525 -0.01922389 155.25953496 -0.01662076 171.81973692 -0.02139284 C172.91995029 -0.02169838 174.02016365 -0.02200393 175.15371682 -0.02231872 C179.62029762 -0.02356416 184.08687841 -0.02483777 188.55345919 -0.02615778 C230.41866252 -0.03838261 272.28383143 -0.02731766 314.14902945 -0.00577019 C351.31061041 0.01321099 388.47213654 0.01151242 425.63371702 -0.00761416 C467.42434018 -0.02905156 509.21493295 -0.03751549 551.00556084 -0.0251651 C555.46381199 -0.02388231 559.92206315 -0.02263095 564.38031431 -0.02139284 C565.47797893 -0.02107654 566.57564355 -0.02076023 567.70657073 -0.02043433 C584.25280539 -0.01589223 600.79901801 -0.02119099 617.34524962 -0.03131106 C636.16672623 -0.04276561 654.98814039 -0.03985148 673.80960926 -0.01818808 C684.33195949 -0.00647509 694.85417435 -0.00562952 705.37652096 -0.02077278 C712.4177349 -0.02978513 719.45884101 -0.02408333 726.50003906 -0.0067537 C730.50329602 0.00270044 734.50628539 0.00614413 738.50953331 -0.00837763 C769.92602979 -0.11381272 798.19853674 4.65981062 826.60002562 18.51387022 C827.24777952 18.82550108 827.89553343 19.13713194 828.56291624 19.45820615 C872.65496193 40.91391325 905.74366024 81.08176592 921.73625609 126.95771787 C929.52071363 149.99425559 931.05134369 172.22061177 930.98542828 196.39095407 C930.9777432 200.44309281 930.98762727 204.49519796 930.99515828 208.54733179 C931.00594322 215.63304098 931.00569569 222.71868148 930.9980168 229.80439375 C930.98662892 240.34141958 930.99249148 250.87838789 931.00164172 261.41541339 C931.01741032 280.23888428 931.01608119 299.06232456 931.00740498 317.88579834 C930.9998497 334.35882061 930.99789222 350.83183168 931.00147291 367.30485532 C931.00170207 368.39877855 931.00193122 369.49270178 931.00216732 370.61977419 C931.00310138 375.06068792 931.00405659 379.50160164 931.00504661 383.94251535 C931.01421765 425.57709486 931.00591269 467.21165491 930.98975592 508.84623142 C930.97551977 545.81260322 930.97679368 582.77894401 930.9911389 619.74531553 C931.00721286 661.30515675 931.01356717 702.86498079 931.00430211 744.42482469 C931.00334 748.85751149 931.00240147 753.2901983 931.00147291 757.72288511 C931.00111706 759.35997106 931.00111706 759.35997106 931.00075403 761.03012946 C930.99734577 777.49028044 931.00132468 793.95041896 931.00891157 810.41056821 C931.01749784 829.13191519 931.01532674 847.85322685 930.99906934 866.57456944 C930.99027683 877.04419214 930.98966178 887.5137383 931.00100786 897.98335897 C931.00775766 904.98569896 931.00350759 911.98797787 930.99049356 918.99030885 C930.98339008 922.97384649 930.98084794 926.95723261 930.9917115 930.94076524 C931.04117828 950.5077271 930.54696456 969.33175762 924.78752562 988.20137022 C924.52673216 989.07599912 924.2659387 989.95062803 923.99724241 990.85176084 C923.22002768 993.41331838 922.41761598 995.96494228 921.60002562 998.51387022 C921.37476194 999.22108213 921.14949827 999.92829405 920.91740843 1000.65693662 C909.29725377 1036.25560175 884.15169632 1069.01454639 853.60002562 1090.51387022 C852.72676634 1091.1376959 852.72676634 1091.1376959 851.83586546 1091.77412412 C842.54745226 1098.36807419 832.93272793 1103.73882918 822.60002562 1108.51387022 C820.89072874 1109.31437803 820.89072874 1109.31437803 819.14690062 1110.13105772 C792.49160716 1122.09494524 766.07517922 1125.13213968 737.1487769 1125.0339418 C733.06544866 1125.02458198 728.98218359 1125.03867399 724.89886834 1125.04958097 C717.76287885 1125.06547263 710.62700745 1125.06670421 703.49100729 1125.05798338 C692.87894526 1125.04504966 682.26698898 1125.05511858 671.65493324 1125.06948292 C652.6951647 1125.09435721 633.73544623 1125.09632039 614.77566613 1125.08820881 C598.18135962 1125.08112433 581.58707249 1125.08108992 564.99276587 1125.0880718 C562.76315498 1125.08898315 560.53354409 1125.08989391 558.3039332 1125.09080409 C554.94373555 1125.09218728 551.58353791 1125.09357838 548.22334027 1125.09499022 C517.00170779 1125.10796258 485.78008177 1125.11309579 454.55844828 1125.10145662 C453.38262574 1125.10101865 452.20680321 1125.10058068 450.99534969 1125.10012944 C441.44805092 1125.09652295 431.90075225 1125.092688 422.35345358 1125.08883851 C385.11799011 1125.07399275 347.88260001 1125.08277086 310.64714476 1125.11079405 C268.76969331 1125.14225083 226.89228527 1125.15718285 185.01482179 1125.14699403 C180.54612542 1125.14595732 176.07742905 1125.14497009 171.60873266 1125.14401052 C169.95838969 1125.14363719 169.95838969 1125.14363719 168.27470645 1125.14325632 C151.69725002 1125.1398224 135.11983205 1125.1490989 118.54238363 1125.16478155 C99.68109218 1125.18258422 80.81989405 1125.1826326 61.95860653 1125.15942989 C51.41686154 1125.14696922 40.87533125 1125.14810078 30.33359906 1125.16931076 C23.27562832 1125.18210923 16.21782161 1125.17644841 9.15986852 1125.15632595 C5.14945788 1125.14539168 1.13946674 1125.14189364 -2.87092288 1125.16100125 C-56.24733563 1125.39725195 -101.78703364 1107.21355714 -140.39997438 1070.51387022 C-141.03161501 1069.93508115 -141.66325563 1069.35629209 -142.31403688 1068.75996397 C-169.6176663 1042.94444705 -191.84291278 999.42972791 -193.52700889 961.66522326 C-193.52797161 960.66973311 -193.52893433 959.67424295 -193.52992622 958.64858643 C-193.53345464 957.49047429 -193.53698306 956.33236214 -193.5406184 955.13915569 C-193.53942062 953.87377457 -193.53822284 952.60839345 -193.53698877 951.30466745 C-193.5392463 949.93578061 -193.54193815 948.56689442 -193.54502461 947.1980092 C-193.5522533 943.42504275 -193.55325389 939.6520962 -193.55324738 935.87912376 C-193.55431738 931.77836421 -193.56110884 927.67761348 -193.56715409 923.5768588 C-193.57822646 915.43799521 -193.58387754 907.29913594 -193.58786296 899.16026615 C-193.5928731 889.41297985 -193.60360097 879.66570191 -193.6143447 869.91842055 C-193.63997607 846.35355375 -193.65501207 822.78868369 -193.66785517 799.22380696 C-193.6721105 791.41632235 -193.67667626 783.60883798 -193.68143848 775.80135367 C-193.7067033 734.27483436 -193.72874805 692.74831465 -193.74116663 651.22178934 C-193.74408789 641.59982995 -193.74705542 631.97787059 -193.75007204 622.35591123 C-193.75044295 621.16051884 -193.75081386 619.96512646 -193.75119601 618.73351006 C-193.76334364 580.00137758 -193.79427401 541.26929062 -193.83599356 502.53717951 C-193.87881766 462.70682097 -193.90541241 422.87648648 -193.91064134 383.0461043 C-193.91138175 377.41551006 -193.91229242 371.78491585 -193.91329912 366.15432165 C-193.91348974 365.04621639 -193.91368035 363.93811113 -193.91387674 362.79642693 C-193.91738492 344.9916442 -193.93765817 327.18691862 -193.96409576 309.38215685 C-193.99029348 291.46808249 -193.99794544 273.55407389 -193.98699447 255.63998312 C-193.98103584 245.00943859 -193.98883321 234.37911777 -194.0168253 223.74860727 C-194.03417323 216.63089613 -194.03304785 209.51333623 -194.01745762 202.39562158 C-194.00910731 198.35079317 -194.00824162 194.30638924 -194.03006908 190.26160151 C-194.26702363 143.45420738 -180.77116737 100.09668636 -149.39997438 64.51387022 C-148.53759157 63.53031553 -147.67520876 62.54676084 -146.78669313 61.53340147 C-108.42144101 18.40159892 -56.58882327 -0.20527566 0 0 Z " fill="#F7E5D0" transform="translate(193.3999743834138,-0.5138702169060707)"/>
<path d="M0 0 C11.93008161 8.3077466 16.42939744 20.85401806 18.96606445 34.55981445 C22.00530294 51.67968266 23.62496833 68.79192693 24.4296875 86.1484375 C24.49130569 87.41031891 24.49130569 87.41031891 24.5541687 88.69769287 C25.29253309 103.82451053 25.74011646 118.9546161 26.02563477 134.09643555 C26.0418689 134.88337296 26.05810303 135.67031036 26.0748291 136.48109436 C26.10456637 137.93946602 26.13074349 139.39791699 26.15246582 140.85643005 C26.21231317 143.73409737 26.37065143 146.48066243 26.86895752 149.31820679 C27.35650911 152.39358043 27.50058092 155.26030277 27.51245117 158.37109375 C27.52202095 160.08317017 27.52202095 160.08317017 27.53178406 161.82983398 C27.53345329 163.65816772 27.53345329 163.65816772 27.53515625 165.5234375 C27.53848465 166.78808838 27.54181305 168.05273926 27.54524231 169.35571289 C27.55029703 172.02526379 27.55308459 174.6947128 27.55249023 177.36425781 C27.5523885 180.77367066 27.56606266 184.18287578 27.58326244 187.59223938 C27.59709231 190.86096419 27.59647188 194.12968741 27.59765625 197.3984375 C27.60484177 198.61732666 27.61202728 199.83621582 27.61943054 201.09204102 C27.61635391 202.23342529 27.61327728 203.37480957 27.61010742 204.55078125 C27.61153244 205.54972412 27.61295746 206.54866699 27.61442566 207.57788086 C27.33897901 210.78987807 26.39324177 213.41388386 25.3671875 216.4609375 C25.07719361 219.14746386 25.07719361 219.14746386 25.12426758 221.88598633 C25.12119095 222.92600296 25.11811432 223.96601959 25.11494446 225.03755188 C25.12212997 226.15308945 25.12931549 227.26862701 25.13671875 228.41796875 C25.13717697 229.59316574 25.13763519 230.76836273 25.1381073 231.97917175 C25.14112722 234.47481288 25.14900573 236.97045216 25.16137695 239.46606445 C25.17930665 243.19424521 25.18188853 246.92217181 25.18164062 250.65039062 C25.19863278 262.53121382 25.35221874 274.40027456 25.79296875 286.2734375 C25.8283223 287.28449051 25.86367584 288.29554352 25.90010071 289.3372345 C26.13270462 294.89251712 26.70058764 300.18634421 27.7421875 305.6484375 C28.63586226 310.92690496 28.63586226 310.92690496 27.41796875 313.34765625 C26.1181479 314.76665838 24.74381762 316.11632203 23.3671875 317.4609375 C22.85682101 319.48987249 22.85682101 319.48987249 22.7421875 321.6484375 C22.3671875 325.4609375 22.3671875 325.4609375 20.9921875 327.3984375 C19.3671875 328.4609375 19.3671875 328.4609375 16.3671875 329.4609375 C16.6971875 330.4509375 17.0271875 331.4409375 17.3671875 332.4609375 C16.63113281 332.50089844 15.89507812 332.54085938 15.13671875 332.58203125 C14.16089844 332.68644531 13.18507813 332.79085938 12.1796875 332.8984375 C11.21675781 332.97964844 10.25382812 333.06085938 9.26171875 333.14453125 C5.81793675 334.7107317 5.78738069 335.3825862 4.3359375 338.7109375 C0.95782716 345.43037416 -5.18302259 346.72548167 -11.9453125 349.0234375 C-13.84803752 349.71360386 -15.74567219 350.41659155 -17.64315796 351.12101746 C-19.5017614 351.81081789 -21.36341464 352.49238281 -23.22509766 353.17382812 C-27.63523329 354.83955639 -31.90352425 356.69440897 -36.1328125 358.7734375 C-37.31875 359.34707031 -38.5046875 359.92070313 -39.7265625 360.51171875 C-44.04820968 363.41024287 -46.00935159 366.87111219 -47.8828125 371.6484375 C-48.86190054 376.62546837 -48.7973196 381.40691383 -48.6328125 386.4609375 C-38.492953 385.78494687 -29.65123009 380.06141136 -20.93554688 375.22827148 C-15.48175469 372.24198415 -10.65346162 370.17246726 -4.3828125 370.2109375 C-3.53203125 370.20578125 -2.68125 370.200625 -1.8046875 370.1953125 C0.3671875 370.4609375 0.3671875 370.4609375 2.3671875 372.4609375 C2.4703125 373.7396875 2.5734375 375.0184375 2.6796875 376.3359375 C2.82095811 378.49199838 2.82095811 378.49199838 3.3671875 380.4609375 C4.2334375 381.1415625 5.0996875 381.8221875 5.9921875 382.5234375 C6.7759375 383.1628125 7.5596875 383.8021875 8.3671875 384.4609375 C8.17491224 390.01631915 6.27040343 394.14585011 3.4921875 398.8359375 C2.89543213 399.87077271 2.89543213 399.87077271 2.28662109 400.92651367 C-0.6610732 405.97473924 -3.80461613 410.88464903 -7.0078125 415.7734375 C-15.40610356 428.59852977 -22.96974674 441.74092064 -29.6953125 455.5234375 C-30.16066406 456.46268066 -30.62601562 457.40192383 -31.10546875 458.36962891 C-33.94307117 464.31824856 -35.67790474 469.93735394 -36.6328125 476.4609375 C-35.9625 476.72390625 -35.2921875 476.986875 -34.6015625 477.2578125 C42.50955457 508.50810731 42.50955457 508.50810731 65.3671875 529.4609375 C65.6971875 530.4509375 66.0271875 531.4409375 66.3671875 532.4609375 C68.33485281 533.21773185 70.34693951 533.8584074 72.3671875 534.4609375 C73.8356192 535.09236659 75.30152459 535.72968565 76.765625 536.37109375 C82.89413897 538.83217682 89.05220288 539.93199121 95.5546875 540.9609375 C96.82828125 541.1674292 98.101875 541.3739209 99.4140625 541.58666992 C110.52282402 543.33849626 121.68377894 544.60684936 132.8671875 545.7734375 C134.09832779 545.90419678 134.09832779 545.90419678 135.3543396 546.03759766 C151.7561094 548.7508988 151.7561094 548.7508988 167.3671875 546.4609375 C169.01651978 546.52493276 170.66333881 546.66167666 172.3046875 546.8359375 C173.61759766 546.97128906 173.61759766 546.97128906 174.95703125 547.109375 C176.8945082 547.30911489 178.83190568 547.50963891 180.76904297 547.71264648 C185.66599233 548.1963448 190.52485378 548.52982914 195.4453125 548.63671875 C196.46109375 548.66056641 197.476875 548.68441406 198.5234375 548.70898438 C200.60134656 548.75227415 202.67954297 548.78334753 204.7578125 548.80273438 C211.24271116 548.98057279 214.98238065 549.85479094 220.3671875 553.4609375 C224.1213895 554.88468676 228.08745173 554.60858585 232.0546875 554.5859375 C232.74369141 554.58980469 233.43269531 554.59367188 234.14257812 554.59765625 C237.54112129 554.89079664 237.54112129 554.89079664 240.3671875 553.4609375 C239.2328125 553.1721875 238.0984375 552.8834375 236.9296875 552.5859375 C235.7540625 552.2146875 234.5784375 551.8434375 233.3671875 551.4609375 C233.0371875 550.8009375 232.7071875 550.1409375 232.3671875 549.4609375 C242.92527406 549.091917 242.92527406 549.091917 247.3671875 551.4609375 C247.3671875 552.7809375 247.3671875 554.1009375 247.3671875 555.4609375 C254.6420068 556.44735368 262.03241724 557.08181475 269.3671875 556.4609375 C270.0271875 555.8009375 270.6871875 555.1409375 271.3671875 554.4609375 C277.82872596 554.92247596 277.82872596 554.92247596 280.3671875 557.4609375 C284.0606945 557.66240152 286.84659182 557.63446939 290.3671875 556.4609375 C292.5360524 556.49727158 294.70416633 556.61023658 296.8671875 556.7734375 C298.58421875 556.89138672 298.58421875 556.89138672 300.3359375 557.01171875 C303.3671875 557.4609375 303.3671875 557.4609375 306.3671875 559.4609375 C309.49240583 559.62792982 309.49240583 559.62792982 312.3671875 559.4609375 C312.3671875 558.4709375 312.3671875 557.4809375 312.3671875 556.4609375 C308.4071875 555.8009375 304.4471875 555.1409375 300.3671875 554.4609375 C300.0371875 553.4709375 299.7071875 552.4809375 299.3671875 551.4609375 C300.11097656 551.52152344 300.85476563 551.58210937 301.62109375 551.64453125 C307.11827756 552.06639305 312.56835512 552.48041524 318.08203125 552.50390625 C336.44451389 552.70665211 354.13776244 556.36701048 372.07104492 559.99627686 C374.28049554 560.44339402 376.49073789 560.88638724 378.70117188 561.32861328 C382.5725371 562.1059756 386.43934776 562.90409348 390.3046875 563.7109375 C391.43414795 563.94449951 392.5636084 564.17806152 393.72729492 564.41870117 C399.2851516 565.61698415 404.2203082 567.05319896 409.3671875 569.4609375 C410.5634375 569.7909375 411.7596875 570.1209375 412.9921875 570.4609375 C416.25763768 571.4284783 418.5611339 572.56495534 421.3671875 574.4609375 C422.05296875 574.87601563 422.73875 575.29109375 423.4453125 575.71875 C425.97467198 578.01162465 426.03451422 579.55082017 426.4296875 582.8984375 C426.86686268 586.9672736 426.86686268 586.9672736 428.9140625 590.38671875 C430.98940493 593.3491027 430.66168437 595.64437521 430.5546875 599.2109375 C430.52761719 600.38140625 430.50054688 601.551875 430.47265625 602.7578125 C430.43785156 603.64984375 430.40304687 604.541875 430.3671875 605.4609375 C431.6871875 605.4609375 433.0071875 605.4609375 434.3671875 605.4609375 C433.8046875 607.2734375 433.8046875 607.2734375 432.3671875 609.4609375 C428.37623928 611.53031806 425.89089659 612.4609375 421.3671875 612.4609375 C421.6765625 613.4715625 421.9859375 614.4821875 422.3046875 615.5234375 C422.3671875 619.4609375 422.3671875 619.4609375 420.875 621.44921875 C419.5930478 622.69255793 418.27905681 623.90380694 416.93359375 625.078125 C416.41667969 625.53445313 415.89976562 625.99078125 415.3671875 626.4609375 C415.3671875 626.7909375 415.3671875 627.1209375 415.3671875 627.4609375 C417.0171875 627.7909375 418.6671875 628.1209375 420.3671875 628.4609375 C420.0371875 629.7809375 419.7071875 631.1009375 419.3671875 632.4609375 C418.7071875 632.4609375 418.0471875 632.4609375 417.3671875 632.4609375 C417.3671875 633.4509375 417.3671875 634.4409375 417.3671875 635.4609375 C412.4171875 635.1309375 407.4671875 634.8009375 402.3671875 634.4609375 C404.47109691 638.69672542 404.47109691 638.69672542 408.3671875 640.4609375 C407.7690625 640.7084375 407.1709375 640.9559375 406.5546875 641.2109375 C404.22904158 642.31768688 404.22904158 642.31768688 402.9921875 644.5859375 C401.3671875 646.4609375 401.3671875 646.4609375 398.4296875 646.8359375 C395.44686304 646.47069369 393.98024831 645.80705973 391.3671875 644.4609375 C384.65650701 643.15499305 377.88292385 643.21971295 371.06640625 643.109375 C369.79368362 643.08622223 368.520961 643.06306946 367.20967102 643.03921509 C364.52935824 642.99172788 361.84908683 642.94604316 359.16870117 642.90332031 C355.73084251 642.84820905 352.29320773 642.78439619 348.8555479 642.71814537 C345.57175042 642.65615412 342.28782699 642.60188414 339.00390625 642.546875 C337.767509 642.52297699 336.53111176 642.49907898 335.25724792 642.47445679 C334.11878922 642.4575882 332.98033051 642.4407196 331.80737305 642.42333984 C330.30015938 642.39788589 330.30015938 642.39788589 328.76249695 642.37191772 C326.35208476 642.29611915 326.35208476 642.29611915 324.3671875 643.4609375 C323.02784465 643.53351094 321.68488966 643.5446646 320.34375 643.5234375 C319.50062256 643.51489746 318.65749512 643.50635742 317.78881836 643.49755859 C316.86593018 643.48547363 315.94304199 643.47338867 314.9921875 643.4609375 C305.75629978 643.4064393 296.53623822 643.54741397 287.3046875 643.8359375 C286.09828613 643.866875 284.89188477 643.8978125 283.64892578 643.9296875 C281.94518799 643.98769531 281.94518799 643.98769531 280.20703125 644.046875 C279.20019287 644.0782959 278.19335449 644.1097168 277.15600586 644.14208984 C274.23444179 644.47611441 272.05241842 645.29628594 269.3671875 646.4609375 C266.81917778 646.99152991 264.31165206 647.44507416 261.7421875 647.8359375 C260.95529541 647.9589624 260.16840332 648.0819873 259.35766602 648.20874023 C248.85584239 649.78057991 238.28668713 650.88301594 227.72998047 652.01513672 C218.90219905 652.95039398 218.90219905 652.95039398 210.16796875 654.51171875 C204.04252462 655.83375241 197.86035163 656.18822906 191.6171875 656.5859375 C190.31313965 656.67012939 189.0090918 656.75432129 187.66552734 656.84106445 C173.56837233 657.69931011 159.48557514 657.72806337 145.3671875 657.4609375 C144.27083984 657.44160156 143.17449219 657.42226563 142.04492188 657.40234375 C128.2851057 657.1162069 114.90087132 655.98108123 101.3671875 653.4609375 C100.26745605 653.26226074 100.26745605 653.26226074 99.14550781 653.05957031 C67.86012805 647.26286244 40.49423918 634.22348986 15.0546875 615.4609375 C14.45760986 615.02354248 13.86053223 614.58614746 13.24536133 614.13549805 C4.12128603 607.24644458 -4.00708071 599.18218381 -11.98828125 591.02734375 C-12.9451458 590.05177017 -12.9451458 590.05177017 -13.92134094 589.05648804 C-16.54338792 586.38036874 -19.16442044 583.70370421 -21.76489258 581.0065918 C-30.73404131 571.72142927 -39.94909873 563.86438575 -50.71931458 556.73304749 C-58.83777419 551.33582525 -66.53105702 545.68061082 -73.8203125 539.2109375 C-100.49808406 515.60680288 -133.58938728 491.95820636 -170.4453125 492.1484375 C-172.16161865 492.15689697 -172.16161865 492.15689697 -173.91259766 492.16552734 C-194.12745284 492.45574772 -207.90266804 499.06707197 -222.6328125 512.4609375 C-223.71347178 513.43106744 -224.79420035 514.4011202 -225.875 515.37109375 C-230.71027625 519.73880087 -235.4285016 524.19926134 -239.9921875 528.8515625 C-242.44574313 531.25838374 -245.0610711 533.4683603 -247.6640625 535.7109375 C-249.56304321 537.39892036 -251.35287238 539.14863484 -253.1328125 540.9609375 C-270.69426621 558.68095964 -270.69426621 558.68095964 -281.87109375 559.65625 C-282.89783203 559.62144531 -282.89783203 559.62144531 -283.9453125 559.5859375 C-285.1621875 559.5446875 -286.3790625 559.5034375 -287.6328125 559.4609375 C-287.6328125 558.8009375 -287.6328125 558.1409375 -287.6328125 557.4609375 C-288.91478516 557.69490234 -288.91478516 557.69490234 -290.22265625 557.93359375 C-291.32738281 558.12824219 -292.43210937 558.32289063 -293.5703125 558.5234375 C-294.67246094 558.72066406 -295.77460938 558.91789063 -296.91015625 559.12109375 C-297.80863281 559.23324219 -298.70710937 559.34539063 -299.6328125 559.4609375 C-300.6328125 558.4609375 -300.6328125 558.4609375 -300.90234375 556.1328125 C-300.56875436 552.82592641 -299.67391234 551.99144418 -297.3203125 549.7109375 C-294.67288501 546.90099466 -293.26036124 544.96602978 -292.3828125 541.2109375 C-290.59779162 534.79151457 -285.55688564 530.42696702 -280.98583984 525.82861328 C-279.83260105 524.66288904 -278.70800862 523.46893945 -277.58984375 522.26953125 C-268.53484147 512.7125459 -257.72743273 505.7704706 -246.55883789 498.98388672 C-228.12930314 487.72849281 -210.23701622 475.49541471 -192.68164062 462.92675781 C-174.26569551 449.75119365 -155.63205348 437.33346806 -135.68945312 426.57519531 C-133.81345334 425.55880607 -131.94840255 424.52528837 -130.0859375 423.484375 C-120.91559985 418.44276403 -111.47046621 414.0937982 -101.90625 409.84814453 C-90.1657364 404.90977249 -90.1657364 404.90977249 -81.6328125 396.0234375 C-80.64189741 392.49330248 -80.00484411 389.10684732 -79.6328125 385.4609375 C-84.79842744 386.70379222 -88.37874875 388.32503507 -92.7578125 391.4609375 C-93.31275391 391.85321533 -93.86769531 392.24549316 -94.43945312 392.6496582 C-97.32656638 394.7112426 -100.14075704 396.84452163 -102.90625 399.06640625 C-111.81867654 406.21599439 -121.90774483 413.54255114 -133.81542969 413.60620117 C-135.03755157 413.61577095 -135.03755157 413.61577095 -136.28436279 413.62553406 C-137.15731995 413.62664688 -138.0302771 413.6277597 -138.9296875 413.62890625 C-139.83728821 413.63223465 -140.74488892 413.63556305 -141.67999268 413.63899231 C-143.59980768 413.64405074 -145.51963146 413.64640097 -147.43945312 413.64624023 C-150.3582229 413.64841914 -153.27660993 413.66656545 -156.1953125 413.68554688 C-158.06510288 413.68848264 -159.93489505 413.69046621 -161.8046875 413.69140625 C-163.10197784 413.70218452 -163.10197784 413.70218452 -164.42547607 413.71318054 C-176.25516545 413.66919035 -185.16842975 409.97958136 -193.8203125 401.8984375 C-203.45202863 391.8616492 -205.97726704 381.22150189 -205.9387207 367.78881836 C-205.77721456 360.19475049 -204.45729998 356.22366505 -198.953125 350.83984375 C-197.00425843 349.02727946 -195.0204226 347.29457475 -192.99609375 345.5625 C-190.59004215 343.6847303 -190.59004215 343.6847303 -189.6328125 341.4609375 C-187.8828125 341.00390625 -187.8828125 341.00390625 -185.6328125 340.6484375 C-176.37573783 338.68965211 -169.9307827 333.19446509 -162.78369141 327.32983398 C-153.33520775 319.66009453 -143.03091714 313.17237104 -132.6953125 306.7734375 C-125.69535271 302.35924338 -118.3643714 297.35593945 -113.6328125 290.4609375 C-114.21289062 289.75130859 -114.21289062 289.75130859 -114.8046875 289.02734375 C-120.24447108 282.11989579 -123.32418988 274.98675249 -125.82421875 266.6015625 C-126.57391617 264.35549317 -126.57391617 264.35549317 -128.1628418 262.25195312 C-129.97491539 258.81139087 -129.99107611 256.54362973 -129.9609375 252.6640625 C-129.95951752 251.98235992 -129.95809753 251.30065735 -129.95663452 250.59829712 C-129.9473507 248.30213073 -129.91551692 246.00688178 -129.8828125 243.7109375 C-129.86937868 242.07048239 -129.85687381 240.43001946 -129.84521484 238.78955078 C-129.80605026 234.09261055 -129.7429638 229.39620671 -129.6763916 224.69958496 C-129.62966706 221.22717962 -129.5910126 217.75474553 -129.55371094 214.28222656 C-129.48425842 207.90603065 -129.40229227 201.53010045 -129.31140137 195.1541748 C-129.27588607 192.62368969 -129.24273574 190.09317019 -129.21203613 187.56262207 C-129.16634731 183.96341096 -129.10822816 180.36459925 -129.046875 176.765625 C-129.03530365 175.70123199 -129.0237323 174.63683899 -129.0118103 173.54019165 C-128.88997044 167.28605465 -128.25908649 161.33064428 -127.11564636 155.17901611 C-125.49423928 146.0514212 -125.45039176 136.83018278 -125.4453125 127.5859375 C-125.43306641 126.3896875 -125.42082031 125.1934375 -125.40820312 123.9609375 C-125.40626953 122.80851563 -125.40433594 121.65609375 -125.40234375 120.46875 C-125.39823486 119.43379395 -125.39412598 118.39883789 -125.38989258 117.33251953 C-125.64739273 114.28858304 -126.21806782 112.16366715 -127.6328125 109.4609375 C-130.59878539 107.62919947 -130.59878539 107.62919947 -134.0703125 106.1484375 C-141.45853984 102.32806416 -141.45853984 102.32806416 -142.8828125 98.9609375 C-144.36445346 92.72569846 -144.60058 85.85103135 -144.6328125 79.4609375 C-143.6328125 78.4609375 -143.6328125 78.4609375 -141.296875 78.3828125 C-135.35914895 78.0470028 -131.49253035 77.01952513 -127.41601562 72.48608398 C-122.52114876 66.48383342 -118.20155165 60.04270715 -113.89379883 53.61230469 C-110.1107089 48.00664105 -105.94663893 42.81100739 -101.61865234 37.61987305 C-97.44309955 32.57127259 -93.64392896 27.32285744 -89.8828125 21.9609375 C-84.15437293 13.86575463 -78.21500785 6.11129763 -68.6328125 2.4609375 C-67.6428125 2.4609375 -66.6528125 2.4609375 -65.6328125 2.4609375 C-65.3028125 1.4709375 -64.9728125 0.4809375 -64.6328125 -0.5390625 C-62.05078125 -1.890625 -62.05078125 -1.890625 -58.8203125 -3.1640625 C-57.76199219 -3.58945313 -56.70367187 -4.01484375 -55.61328125 -4.453125 C-39.53233786 -10.31223675 -14.62095437 -8.54696739 0 0 Z " fill="#010000" transform="translate(486.6328125,219.5390625)"/>
<path d="M0 0 C16.32327194 14.01127267 21.31323837 39.62725987 24 60 C24.1544458 61.15193848 24.1544458 61.15193848 24.31201172 62.32714844 C25.74429359 73.51840613 26.26099193 84.72309564 26.4375 96 C26.47190186 97.21147705 26.50630371 98.4229541 26.54174805 99.67114258 C26.58379792 108.2925849 26.58379792 108.2925849 23.47265625 112.0625 C22.65667969 112.701875 21.84070313 113.34125 21 114 C21 115.32 21 116.64 21 118 C21.66 118 22.32 118 23 118 C23.66 116.02 24.32 114.04 25 112 C25.33 112 25.66 112 26 112 C26.02531927 118.9234133 26.04285389 125.84681469 26.05493164 132.77026367 C26.05996575 135.126388 26.06679346 137.4825092 26.07543945 139.83862305 C26.0875453 143.2218503 26.09323749 146.60503632 26.09765625 149.98828125 C26.10281754 151.04461258 26.10797882 152.10094391 26.11329651 153.18928528 C26.11340981 154.66047066 26.11340981 154.66047066 26.11352539 156.16137695 C26.115746 157.02519485 26.11796661 157.88901276 26.12025452 158.77900696 C26 161 26 161 25 164 C24.01 164.33 23.02 164.66 22 165 C22.0309375 166.423125 22.0309375 166.423125 22.0625 167.875 C22 171 22 171 21 173 C23.31 172.67 25.62 172.34 28 172 C27.125 175.875 27.125 175.875 26 177 C25.79395915 178.32781878 25.6337041 179.66295895 25.5 181 C25.11111111 184.88888889 25.11111111 184.88888889 24 186 C23.87419382 189.77418531 23.78851744 193.06947675 24.625 196.75 C25 199 25 199 24.0234375 200.83984375 C22.81261197 203.39551748 22.85860137 205.00662098 23 207.8125 C23.10688342 212.32164428 22.47683019 215.75411319 21 220 C21.66 220 22.32 220 23 220 C22.67 221.65 22.34 223.3 22 225 C21.34 225 20.68 225 20 225 C19.92652344 226.35544922 19.92652344 226.35544922 19.8515625 227.73828125 C19.73941406 229.50751953 19.73941406 229.50751953 19.625 231.3125 C19.55539062 232.48425781 19.48578125 233.65601563 19.4140625 234.86328125 C19 238 19 238 17 241 C16.71337567 245.14776273 16.71337567 245.14776273 18 249 C18.07116382 251.37402501 18.08409085 253.75000677 18.0625 256.125 C18.05347656 257.40632813 18.04445313 258.68765625 18.03515625 260.0078125 C18.01775391 261.48894531 18.01775391 261.48894531 18 263 C15.33333333 262.33333333 12.66666667 261.66666667 10 261 C8.35 263.97 6.7 266.94 5 270 C3.68 269.67 2.36 269.34 1 269 C1 268.01 1 267.02 1 266 C-3.6992627 269.39326414 -7.94627306 272.83671288 -12 277 C-16.04847216 280.38941855 -18.21017358 282.14217476 -23.5 282.125 C-24.2940625 282.12757813 -25.088125 282.13015625 -25.90625 282.1328125 C-28 282 -28 282 -30 281 C-28.28732957 284.28512481 -26.45719941 285.39622202 -23.0703125 286.53637695 C-21.42581709 287.03357525 -19.77701328 287.51666336 -18.125 287.98828125 C-16.31638859 288.53574895 -14.50779544 289.08327699 -12.69921875 289.63085938 C-9.86158158 290.47121589 -7.02237301 291.30595015 -4.18212891 292.13745117 C15.06600891 297.81007192 15.06600891 297.81007192 22.94750977 303.61230469 C25.0344244 305.02327445 26.48718083 305.49655056 28.9375 305.9375 C32 307 32 307 33.00708008 308.5769043 C33.29993896 309.23601807 33.59279785 309.89513184 33.89453125 310.57421875 C35.23641907 313.44003714 36.64184825 316.16935232 38.296875 318.8671875 C52.7843084 342.50102443 63.14437712 369.70060596 60 398 C57.94904365 403.47566649 57.94904365 403.47566649 54.87890625 405.171875 C53.73228516 405.45804688 53.73228516 405.45804688 52.5625 405.75 C49.47887651 406.56395138 46.81593475 407.48619453 44 409 C44.103125 410.010625 44.20625 411.02125 44.3125 412.0625 C43.87889954 417.52586584 41.39170089 420.74791616 37.4609375 424.44921875 C35.80569167 426.20625777 34.94687383 427.87620446 33.9375 430.0625 C32.77100702 432.57818969 31.98948974 434.01051026 30 436 C27.54993482 436.24852732 25.216522 436.37626376 22.76171875 436.40625 C22.04393753 436.41765015 21.32615631 436.42905029 20.58662415 436.4407959 C19.06602882 436.45969848 17.5453515 436.47276497 16.0246582 436.48046875 C13.70572379 436.49984771 11.39036422 436.56184865 9.07226562 436.625 C7.59377103 436.63806461 6.11525109 436.64856378 4.63671875 436.65625 C3.94696457 436.6809436 3.25721039 436.70563721 2.54655457 436.7310791 C-0.20244976 436.70584392 -2.35674191 436.55062382 -4.49263 434.72232056 C-5.7493993 433.21726485 -6.87961547 431.60916135 -8 430 C-8.86753906 429.03835938 -9.73507812 428.07671875 -10.62890625 427.0859375 C-13.18699233 423.75663271 -14.63336543 420.56164238 -15.9375 416.625 C-16.18564453 415.90675049 -16.43378906 415.18850098 -16.68945312 414.44848633 C-18.85272474 407.95526583 -20.42085977 401.34204331 -22 394.6875 C-24.05406487 386.10950166 -26.42112652 378.60613818 -31 371 C-32.06348901 369.15199518 -33.11803682 367.29904608 -34.17236328 365.44580078 C-35.19069491 363.66614283 -36.22760865 361.89715504 -37.265625 360.12890625 C-41.45858514 352.56457951 -41.45858514 352.56457951 -40.4375 347.9375 C-39.61778785 344.09471163 -39.61778785 344.09471163 -41.4375 341.5 C-42.2109375 340.7575 -42.2109375 340.7575 -43 340 C-40.69 340.33 -38.38 340.66 -36 341 C-44.20112474 318.36602591 -44.20112474 318.36602591 -60 301 C-61.31291016 300.08154297 -61.31291016 300.08154297 -62.65234375 299.14453125 C-64.38801193 297.9367851 -66.13569933 296.74600725 -67.8984375 295.578125 C-70 294 -70 294 -72 291 C-61.04873459 283.55313952 -45.69328475 284.60333485 -33 285 C-33.99 283.515 -33.99 283.515 -35 282 C-35 281.01 -35 280.02 -35 279 C-35.99 279.66 -36.98 280.32 -38 281 C-40.1875 280.625 -40.1875 280.625 -42 280 C-42.12004395 279.35675781 -42.24008789 278.71351563 -42.36376953 278.05078125 C-45.84827626 255.72222675 -45.84827626 255.72222675 -56 236 C-58.40144267 236.1957792 -58.40144267 236.1957792 -61 237 C-62.0073108 238.32781878 -63.00612666 239.66209359 -64 241 C-65.64774911 241.98864946 -67.30119338 242.97010019 -68.9921875 243.8828125 C-72.82042007 246.01291856 -76.38914543 248.52546867 -80 251 C-80.86882812 251.56332031 -81.73765625 252.12664062 -82.6328125 252.70703125 C-89.99057648 257.68557525 -95.25575216 263.51545017 -100.72851562 270.40234375 C-102.58107236 272.73013394 -104.48139201 275.01805528 -106.375 277.3125 C-108.95249568 280.46993221 -111.51404045 283.63944581 -114.0625 286.8203125 C-121.5299591 296.11651438 -129.27996794 304.9651863 -137.484375 313.62109375 C-142.30864705 318.79105408 -146.68435664 324.12809505 -150.875 329.8125 C-161.7501708 344.56221148 -173.98870694 359.75017846 -188.16015625 371.46484375 C-189.51962917 372.59918103 -190.83406953 373.78798834 -192.12109375 375.00390625 C-192.82363281 375.66261719 -193.52617188 376.32132813 -194.25 377 C-194.87390625 377.598125 -195.4978125 378.19625 -196.140625 378.8125 C-196.75421875 379.204375 -197.3678125 379.59625 -198 380 C-199.32 379.67 -200.64 379.34 -202 379 C-202.66 375.7 -203.32 372.4 -204 369 C-206.31 369.33 -208.62 369.66 -211 370 C-211 369.01 -211 368.02 -211 367 C-211.55816406 367.309375 -212.11632812 367.61875 -212.69140625 367.9375 C-215.13739111 369.06323246 -217.28951151 369.54302818 -219.9375 370 C-223.50058165 370.6631437 -226.69531121 371.4578119 -230 373 C-233.58585373 367.47180884 -233.8761356 362.37492949 -233 356 C-231.73190374 351.78428444 -229.9584268 347.93663568 -228 344 C-227.46890625 342.91203125 -226.9378125 341.8240625 -226.390625 340.703125 C-221.67522646 331.4886306 -216.77296948 322.02835649 -206.87109375 317.83984375 C-197.5682005 313.66422361 -190.82279329 302.64484493 -184.5625 295 C-183.92634766 294.22527344 -183.29019531 293.45054687 -182.63476562 292.65234375 C-181.08869821 290.76916389 -179.54379567 288.88504225 -178 287 C-179.3089572 283.87802522 -179.3089572 283.87802522 -182 282 C-184.19344602 281.95016993 -186.38845941 281.96386831 -188.58203125 282.0078125 C-189.91991418 282.02533741 -191.25780531 282.04224486 -192.59570312 282.05859375 C-194.70246117 282.08948535 -196.80880798 282.12491856 -198.9152832 282.17138672 C-200.95008342 282.21392277 -202.98440603 282.23722514 -205.01953125 282.2578125 C-206.23745361 282.2798877 -207.45537598 282.30196289 -208.71020508 282.32470703 C-213.41559323 281.86027911 -215.95449444 280.25502571 -218.94921875 276.66015625 C-219.52285156 275.80292969 -220.09648438 274.94570313 -220.6875 274.0625 C-221.26886719 273.20785156 -221.85023438 272.35320312 -222.44921875 271.47265625 C-225.97447733 265.85177796 -227.05855192 261.65647967 -226 255 C-223.08498208 247.44090409 -218.32694246 242.36070501 -211 239 C-207.59897656 237.80041421 -204.15767312 236.74900105 -200.67236328 235.82299805 C-196.2897518 234.6190368 -193.34757587 233.07509877 -190 230 C-189.67 230.66 -189.34 231.32 -189 232 C-190.66876872 234.86464385 -192.5535925 237.54357267 -194.43359375 240.2734375 C-196.33209622 243.0539823 -196.33209622 243.0539823 -196 247 C-190.04590789 246.67523134 -186.49007847 245.32397244 -181.42578125 242.25390625 C-178.75904688 240.87544935 -176.29662786 240.22995808 -173.375 239.5625 C-168.08012646 238.2685281 -164.61023727 236.07570812 -161 232 C-159.85185003 229.70370006 -159.69230191 227.92301914 -159.4375 225.375 C-159.31181641 224.14910156 -159.31181641 224.14910156 -159.18359375 222.8984375 C-159.12300781 222.27195312 -159.06242188 221.64546875 -159 221 C-160.4540625 221.0309375 -160.4540625 221.0309375 -161.9375 221.0625 C-166.33344515 221.07150808 -170.64436949 220.55309594 -175 220 C-175.33 219.01 -175.66 218.02 -176 217 C-177.95984667 215.53650088 -177.95984667 215.53650088 -180.3125 214.1875 C-186.74821614 209.97521669 -188.89900698 206.08738158 -190.625 198.625 C-193.16790375 185.06963762 -194.33097373 171.89532872 -194.26074219 158.11914062 C-194.25003818 155.63386486 -194.26070266 153.14931637 -194.2734375 150.6640625 C-194.28713148 135.766845 -192.78041717 121.16846429 -190.1875 106.5 C-190.01718262 105.53570068 -189.84686523 104.57140137 -189.67138672 103.57788086 C-183.75460338 71.32848256 -170.55600978 36.03284386 -142.55859375 16.5078125 C-137.48454341 13.19095963 -133.12613263 10.68576112 -127 10 C-128.0665242 12.71478887 -128.96705102 13.9744785 -131.3046875 15.78515625 C-151.42412336 32.31808398 -164.6717569 67.01027319 -171.5 91.4375 C-171.73138672 92.26403076 -171.96277344 93.09056152 -172.20117188 93.94213867 C-176.64610626 111.17639225 -176.28432324 128.54401698 -176.19561768 146.21289062 C-176.18477679 148.93338211 -176.18515028 151.65382307 -176.18575573 154.37433243 C-176.18541552 157.67144423 -176.17656348 160.96852591 -176.16796875 164.265625 C-176.16685593 165.46592346 -176.1657431 166.66622192 -176.16459656 167.90289307 C-176.10828813 178.04125422 -175.95619946 188.01225981 -172.9375 197.75 C-172.57527344 198.94109375 -172.21304688 200.1321875 -171.83984375 201.359375 C-171.56269531 202.23078125 -171.28554688 203.1021875 -171 204 C-167.89410945 203.67446852 -166.36118151 203.35012493 -164.0859375 201.14453125 C-158.51028952 193.54484667 -155.56306063 187.30480796 -154 178 C-151 179 -151 179 -149.9375 181 C-149.628125 181.66 -149.31875 182.32 -149 183 C-148.34 183.33 -147.68 183.66 -147 184 C-147.875 191.625 -147.875 191.625 -149 195 C-149.02994114 198.00266846 -148.93386513 200.99102503 -148.83984375 203.9921875 C-149.0048641 207.09135021 -149.6872127 209.20968347 -151 212 C-149.95657219 213.23836166 -149.95657219 213.23836166 -147.6875 213.375 C-144.78828786 213.23568388 -144.78828786 213.23568388 -142.625 210.75 C-140.7563794 208.22171141 -140.7563794 208.22171141 -141.25 205.875 C-141.4975 205.25625 -141.745 204.6375 -142 204 C-142 203.01 -142 202.02 -142 201 C-140.07676833 199.3705095 -138.20307963 197.97113492 -136.125 196.5625 C-135.50729736 196.13219482 -134.88959473 195.70188965 -134.25317383 195.25854492 C-128.35097544 191.17229538 -122.34635132 187.23636896 -116.36206055 183.27197266 C-106.45481971 177.59964085 -106.45481971 177.59964085 -100 169 C-104.71134901 170.4702082 -109.2300564 172.05732712 -113.6875 174.1875 C-117.27801006 175.81670177 -120.00487619 176.66585397 -124 176 C-125.625 174.85546875 -125.625 174.85546875 -127 173 C-127.4765625 170.1796875 -127.4765625 170.1796875 -127.625 166.875 C-127.83822449 162.8146614 -128.11801036 158.83820261 -128.6875 154.8125 C-128.790625 153.554375 -128.89375 152.29625 -129 151 C-126.37979591 148.37979591 -124.57227371 148.51141164 -120.9375 147.9375 C-108.8779263 145.22078285 -103.37582727 135.15735415 -97.06640625 125.35546875 C-93.69623469 120.07578283 -93.69623469 120.07578283 -93 114 C-95.65676055 112.67161972 -97.55555404 112.96937668 -100.5234375 113.078125 C-101.626875 113.10390625 -102.7303125 113.1296875 -103.8671875 113.15625 C-106.19839324 113.21855394 -108.52923377 113.29658343 -110.859375 113.390625 C-119.39450235 113.54978821 -119.39450235 113.54978821 -122.58984375 110.6484375 C-123.05519531 109.77445312 -123.52054688 108.90046875 -124 108 C-125.60946977 106.53687771 -125.60946977 106.53687771 -127.1875 105.375 C-130 103 -130 103 -131 100 C-131.33 100.66 -131.66 101.32 -132 102 C-132.66 102 -133.32 102 -134 102 C-133.94140625 99.68359375 -133.94140625 99.68359375 -133 97 C-130.57811965 95.73139601 -128.51063991 94.88367663 -125.9375 94.0625 C-124.47772098 93.5564036 -123.01808977 93.0498807 -121.55859375 92.54296875 C-120.4291333 92.16277588 -120.4291333 92.16277588 -119.27685547 91.77490234 C-115.65888929 90.54356794 -112.07969413 89.2127712 -108.5 87.875 C-107.82348389 87.6267749 -107.14696777 87.3785498 -106.44995117 87.12280273 C-103.04149108 85.85315029 -99.88475997 84.46440461 -96.75 82.625 C-91.7713812 80.03128248 -86.4413612 80.03807071 -81 81 C-77.64932432 82.60790938 -74.91945466 84.72372022 -72 87 C-70.70146152 87.75374935 -69.38979189 88.48561931 -68.0625 89.1875 C-65 91 -65 91 -63 94 C-63.07965988 101.98988607 -65.91453882 108.20786951 -69.375 115.3125 C-69.90649658 116.4166626 -70.43799316 117.5208252 -70.9855957 118.65844727 C-75.26392354 127.21573555 -80.03466312 133.5051174 -87 140 C-87.33 140.66 -87.66 141.32 -88 142 C-87.15179687 141.68675781 -86.30359375 141.37351562 -85.4296875 141.05078125 C-79.55941616 139.25225848 -74.02637821 138.62508284 -68 140 C-64.32210753 143.12911081 -61.85098049 146.5377036 -60 151 C-60.0703125 153.18359375 -60.0703125 153.18359375 -61 155 C-62.86155677 156.58892603 -64.83460761 157.82664389 -66.89453125 159.14453125 C-69.25115695 161.22133498 -70.31851053 163.44338028 -71.79174805 166.1784668 C-74.02734401 169.54880049 -77.24112178 171.67986638 -80.5 174 C-81.20979004 174.51763916 -81.91958008 175.03527832 -82.65087891 175.56860352 C-91.59613327 182.00222051 -101.07731914 187.23623507 -111 192 C-111 192.66 -111 193.32 -111 194 C-105.38568533 196.67719635 -100.0551168 198.59434789 -94 200 C-93.67 200.33 -93.34 200.66 -93 201 C-91.40828015 201.04814844 -89.8146812 201.03670044 -88.22265625 201 C-69.64410857 200.91335483 -69.64410857 200.91335483 -63.625 206.4375 C-61.73235955 208.58134546 -60.27401479 210.45197041 -59 213 C-58.34 212.34 -57.68 211.68 -57 211 C-57.35031338 206.14565746 -59.07806417 201.8832015 -60.9375 197.4375 C-61.20240234 196.79103516 -61.46730469 196.14457031 -61.74023438 195.47851562 C-62.86221369 192.741777 -63.99430988 190.0129577 -65.18359375 187.3046875 C-66.43439393 183.77372048 -66.12621304 180.72328476 -66 177 C-62.10349725 180.77473704 -58.56769915 184.77283931 -55.0625 188.9140625 C-52.85234071 191.14933723 -50.80730045 192.5941111 -48 194 C-44.81555347 194.17797389 -44.81555347 194.17797389 -42 193 C-39.85394303 188.97348015 -39.37319376 184.69900418 -38.89453125 180.22265625 C-38.81064651 179.4439064 -38.72676178 178.66515656 -38.64033508 177.86280823 C-37.59174219 167.07819237 -37.65087838 156.26265038 -37.6875 145.4375 C-37.68932281 144.32048706 -37.69114563 143.20347412 -37.69302368 142.0526123 C-37.75679091 118.769888 -38.67656208 95.8171717 -43.375 72.9375 C-43.55957764 72.03290039 -43.74415527 71.12830078 -43.93432617 70.19628906 C-45.6296326 62.875488 -48.46177328 56.61062538 -54.625 52.0625 C-60.06472557 48.73822327 -64.74204414 48.1979371 -71 49 C-76.80256945 51.25362951 -80.76672708 55.68851908 -85.0078125 60.078125 C-88.04146907 63.00471134 -91.27337163 65.06077301 -95 67 C-96.10601563 67.58974609 -96.10601563 67.58974609 -97.234375 68.19140625 C-104.61618323 71.65313658 -112.97228659 72.82507492 -120.89648438 70.42578125 C-123.97228523 69.28144424 -126.88755705 67.93756002 -129.84375 66.5078125 C-135.28446384 63.9086596 -140.08784133 62.74912644 -146.046875 62.34375 C-148 62 -148 62 -150 60 C-149.91479492 57.5612793 -149.91479492 57.5612793 -149 55 C-146.99731445 53.39770508 -146.99731445 53.39770508 -144.36328125 52.01953125 C-143.40010986 51.50044189 -142.43693848 50.98135254 -141.44458008 50.4465332 C-140.41099365 49.90730225 -139.37740723 49.36807129 -138.3125 48.8125 C-125.47633317 41.83956037 -114.46407711 34.14376238 -103.31640625 24.703125 C-75.00599406 1.25568983 -35.26025454 -25.23528021 0 0 Z " fill="#010101" transform="translate(772,321)"/>
<path d="M0 0 C13.92518798 -1.04362917 32.34774682 3.38291092 43.5703125 11.84765625 C46.06647127 14.64716764 46.5713344 15.86431856 46.6328125 19.55859375 C46.66459274 23.10312988 46.66459274 23.10312988 47.8203125 26.37109375 C47.8603045 28.37069387 47.86378049 30.37156617 47.8203125 32.37109375 C44.1903125 32.37109375 40.5603125 32.37109375 36.8203125 32.37109375 C37.1503125 34.35109375 37.4803125 36.33109375 37.8203125 38.37109375 C32.3136269 38.82061911 28.06101221 37.95314072 22.7578125 36.37109375 C10.82617141 32.92806564 -2.81773572 32.69011786 -14.1796875 38.37109375 C-15.99218671 38.39199572 -17.8053453 38.36167957 -19.6171875 38.30859375 C-28.54386275 38.218324 -37.32616651 39.32400362 -46.1796875 40.37109375 C-46.1796875 39.38109375 -46.1796875 38.39109375 -46.1796875 37.37109375 C-45.07109375 36.96117187 -43.9625 36.55125 -42.8203125 36.12890625 C-41.35672721 35.58475274 -39.89318795 35.0404754 -38.4296875 34.49609375 C-37.70007813 34.22667969 -36.97046875 33.95726562 -36.21875 33.6796875 C-32.77858334 32.39744356 -29.41489183 31.12491504 -26.1796875 29.37109375 C-30.40551037 25.14527088 -44.89915203 27.2089806 -50.6171875 27.203125 C-51.77734375 27.1997966 -52.9375 27.1964682 -54.1328125 27.19303894 C-56.57665616 27.18800434 -59.02050662 27.18562953 -61.46435547 27.18579102 C-65.14172142 27.1836162 -68.81878114 27.16545483 -72.49609375 27.14648438 C-89.69243129 27.10347555 -106.78490027 27.16320263 -123.3671875 32.24609375 C-125.23922079 32.78641395 -127.11161914 33.32547084 -128.984375 33.86328125 C-129.87350586 34.12334961 -130.76263672 34.38341797 -131.67871094 34.65136719 C-142.98099793 37.90391913 -154.51365019 40.42343291 -165.95117188 43.15136719 C-171.31617455 44.43302486 -176.67240363 45.73797064 -182.01391602 47.11425781 C-185.06237787 47.89527803 -188.11944642 48.63776409 -191.1796875 49.37109375 C-192.57960938 49.71140625 -192.57960938 49.71140625 -194.0078125 50.05859375 C-204.03269448 52.12085519 -220.51311305 54.97339951 -229.81640625 49.6875 C-233.33407402 46.88877163 -235.69449806 44.09887791 -238.1796875 40.37109375 C-238.3046875 37.18359375 -238.3046875 37.18359375 -238.1796875 34.37109375 C-234.86055006 34.20918461 -232.35167248 34.31376542 -229.1796875 35.37109375 C-215.89417818 39.43216647 -198.46963981 35.52589254 -185.1796875 32.37109375 C-183.8033313 32.0450415 -183.8033313 32.0450415 -182.39916992 31.71240234 C-179.32472715 30.9788635 -176.25200089 30.23849883 -173.1796875 29.49609375 C-160.51605723 26.43820928 -160.51605723 26.43820928 -155.5078125 25.30078125 C-149.03688448 23.82804005 -142.66032036 22.23993616 -136.30810547 20.31225586 C-94.87166188 7.83767995 -49.65956185 1.5446922 -6.54199219 0.46044922 C-4.348474 0.37747819 -2.18484144 0.20590952 0 0 Z " fill="#030303" transform="translate(773.1796875,258.62890625)"/>
<path d="M0 0 C4.14788114 0.7179025 5.52790115 2.14706304 8.03515625 5.42578125 C10.02255959 8.92131059 11.2869886 12.59671927 10.25 16.5625 C5.51854046 21.48290302 -0.33505221 23.98543857 -6.4375 26.875 C-19.20733729 33.0934068 -31.34013578 40.20369972 -43.47216797 47.57519531 C-46.63015466 49.48983941 -49.79935342 51.38431408 -52.97265625 53.2734375 C-64.60561253 60.22907887 -75.79798611 67.58155993 -86.75 75.5625 C-88.66260023 76.94315074 -90.57860946 78.31910879 -92.5 79.6875 C-93.21671875 80.20570313 -93.9334375 80.72390625 -94.671875 81.2578125 C-98.96867864 83.95542982 -102.66261242 85.11547691 -107.75 84.5625 C-109.625 83.5625 -109.625 83.5625 -110.75 81.5625 C-111.41331402 77.64894727 -111.6486094 75.18134316 -109.70703125 71.68359375 C-100.94619404 60.89582763 -88.06606985 52.93948833 -76.65698242 45.28076172 C-72.05123192 42.17988801 -67.64283995 38.97427788 -63.3125 35.5 C-55.69265415 29.50949379 -47.33908722 24.78783816 -38.98925781 19.89746094 C-36.10297715 18.17676941 -33.30417818 16.35122626 -30.5 14.5 C-21.71247215 8.92277644 -15.20761743 8.13207977 -4.75 8.5625 C-4.79125 7.61375 -4.8325 6.665 -4.875 5.6875 C-4.71163123 1.60328071 -3.98429049 0.81496851 0 0 Z " fill="#F3E2CD" transform="translate(421.75,498.4375)"/>
<path d="M0 0 C1.65688185 14.91193662 1 29.99629675 1 45 C-27.05 45 -55.1 45 -84 45 C-81.9886315 40.97726301 -81.23434466 40.16163 -77.66796875 37.828125 C-76.79358154 37.2501416 -75.91919434 36.6721582 -75.01831055 36.07666016 C-74.08414307 35.4738623 -73.14997559 34.87106445 -72.1875 34.25 C-71.23206299 33.62528809 -70.27662598 33.00057617 -69.29223633 32.35693359 C-66.53499321 30.56044544 -63.76894271 28.77838392 -61 27 C-60.00806641 26.35562988 -60.00806641 26.35562988 -58.99609375 25.69824219 C-50.33660942 20.08141266 -41.29415257 15.44956445 -32 11 C-31.31486328 10.6704834 -30.62972656 10.3409668 -29.92382812 10.00146484 C-23.70361233 7.01935098 -17.57200465 4.1366169 -11 2 C-10.0409375 1.443125 -10.0409375 1.443125 -9.0625 0.875 C-6.04232598 -0.40628595 -3.23675602 -0.12449062 0 0 Z " fill="#F2E0CC" transform="translate(403,641)"/>
<path d="M0 0 C5.49683436 4.37503143 7.41119118 10.99145063 8.41430664 17.82055664 C8.69205759 20.818728 8.86477369 23.80468047 9 26.8125 C9.07605469 27.83537109 9.15210938 28.85824219 9.23046875 29.91210938 C9.58719722 37.27324951 9.58719722 37.27324951 6.86328125 40.64453125 C3.80841608 42.09069525 1.54652146 42.59041025 -1.8125 42.875 C-8.8986656 43.75672608 -14.98908565 46.02724962 -21.56640625 48.66015625 C-24.07445747 49.63883835 -26.37693603 50.4593685 -29 51 C-29.97468575 16.83184967 -29.97468575 16.83184967 -19.96484375 5.74609375 C-13.61099589 0.03800901 -8.58462037 -1.17063005 0 0 Z " fill="#F3E2CD" transform="translate(438,314)"/>
<path d="M0 0 C3.0222882 3.09978277 3.88960628 5.30083979 4.5625 9.5625 C3.61171554 25.19101961 -8.49436719 38.52906758 -18 50 C-18.85464844 51.07507813 -18.85464844 51.07507813 -19.7265625 52.171875 C-21.08135427 53.84033778 -22.53231926 55.42992293 -24 57 C-24.99 57 -25.98 57 -27 57 C-28.55228746 49.01680733 -28.58463252 40.89115213 -28.86962891 32.78613281 C-28.99364575 30.13579533 -29.20825178 27.50908971 -29.44921875 24.8671875 C-30.2922978 13.56101758 -30.2922978 13.56101758 -26.93359375 9.50390625 C-24.03466889 7.58640972 -21.22540218 6.28696345 -18 5 C-17.03191406 4.50242187 -16.06382812 4.00484375 -15.06640625 3.4921875 C-10.11707518 0.97976701 -5.62516732 -1.26279266 0 0 Z " fill="#F3E1CD" transform="translate(435,382)"/>
<path d="M0 0 C2.3125 1.3125 2.3125 1.3125 4 4 C5.13295513 11.12960655 4.13569869 17.08454243 0 23 C-0.92096053 24.05631785 -1.85929493 25.09768515 -2.8125 26.125 C-5.77192928 29.35886257 -7.53602971 32.93806417 -9.375 36.875 C-11.98011808 42.438746 -15.06626778 46.6755624 -19.33203125 51.08984375 C-21.44986241 53.51518201 -22.35623567 55.86164888 -23 59 C-23.66 59 -24.32 59 -25 59 C-25.33 58.34 -25.66 57.68 -26 57 C-26.1959375 57.59296875 -26.391875 58.1859375 -26.59375 58.796875 C-28.6233819 61.97663164 -31.07978135 62.75176263 -34.5 64.25 C-36.24796875 65.03117187 -36.24796875 65.03117187 -38.03125 65.828125 C-41 67 -41 67 -43 67 C-42.85678654 60.69860785 -40.19825168 56.60601245 -36.9609375 51.30078125 C-34.98233798 47.9702701 -33.22129393 44.59484817 -31.5 41.125 C-30.91605469 39.94808594 -30.33210937 38.77117187 -29.73046875 37.55859375 C-28.60721764 35.24870263 -27.50434602 32.92874785 -26.42578125 30.59765625 C-23.08883611 23.54401676 -19.29086219 17.19438628 -14.8125 10.8125 C-14.30114502 10.08119873 -13.78979004 9.34989746 -13.26293945 8.59643555 C-6.2901161 -1.10077032 -6.2901161 -1.10077032 0 0 Z " fill="#040403" transform="translate(681,288)"/>
<path d="M0 0 C0.59810548 12.44945483 0.59810548 12.44945483 -3 17 C-6.14279882 19.36381449 -9.5294602 21.16216288 -13 23 C-13.68658691 23.36593262 -14.37317383 23.73186523 -15.08056641 24.10888672 C-18.1144936 25.72553368 -21.14969537 27.33907879 -24.19775391 28.92895508 C-24.90464355 29.29786865 -25.6115332 29.66678223 -26.33984375 30.046875 C-26.97269287 30.37526367 -27.60554199 30.70365234 -28.25756836 31.04199219 C-29.89018166 31.93962069 -31.44980229 32.96653486 -33 34 C-33.99 34 -34.98 34 -36 34 C-36.9375 31.5625 -36.9375 31.5625 -37 28 C-32.11329816 19.18445482 -23.85699458 12.42849729 -15 8 C-12.58013014 5.98344178 -10.26122998 3.88542784 -7.953125 1.7421875 C-4.92303308 -0.96065449 -3.80186569 -1.14055971 0 0 Z " fill="#F1E0CB" transform="translate(449,427)"/>
<path d="M0 0 C2.5625 1.5 2.5625 1.5 4 3 C2.26721216 6.9873811 -0.38468087 10.25452822 -3 13.6875 C-7.81000995 20.08347423 -11.94537412 26.7194935 -15.82617188 33.71557617 C-16.83380844 35.50630343 -17.91040484 37.25792711 -19 39 C-19.66 39 -20.32 39 -21 39 C-22.53259841 35.93480318 -22.1457475 32.73572458 -22.125 29.375 C-22.12306641 28.62677979 -22.12113281 27.87855957 -22.11914062 27.10766602 C-22.06088027 19.38412272 -21.58031449 11.69952978 -21 4 C-7.03327847 -1.29364741 -7.03327847 -1.29364741 0 0 Z " fill="#EEDCC8" transform="translate(456,624)"/>
<path d="M0 0 C9.4806434 -0.21656292 18.71611681 -0.29998553 28 2 C28.33 2.33 28.66 2.66 29 3 C30.475684 3.16098371 31.95623732 3.27794379 33.4375 3.375 C38.75246562 3.86514092 44.13784901 4.70152862 49 7 C49.495 8.485 49.495 8.485 50 10 C32.61975018 9.08951458 15.97387955 6.8526964 -1 3 C-0.67 2.01 -0.34 1.02 0 0 Z " fill="#ECDBC7" transform="translate(833,783)"/>
<path d="M0 0 C2.31 0.33 4.62 0.66 7 1 C7.33 1.99 7.66 2.98 8 4 C3.71 3.67 -0.58 3.34 -5 3 C-5 2.67 -5 2.34 -5 2 C-3.35 2 -1.7 2 0 2 C0 1.34 0 0.68 0 0 Z " fill="#CFC0AE" transform="translate(875,789)"/>
<path d="M0 0 C2.475 0.99 2.475 0.99 5 2 C4.67 3.32 4.34 4.64 4 6 C2.68 6 1.36 6 0 6 C-0.38218767 4.34385343 -0.71395102 2.67542976 -1 1 C-0.67 0.67 -0.34 0.34 0 0 Z " fill="#D8C8B6" transform="translate(889,792)"/>
<path d="M0 0 C1.32 0.33 2.64 0.66 4 1 C3.49396008 3.16874252 3.00016187 4.99967627 2 7 C1.34 7 0.68 7 0 7 C0 4.69 0 2.38 0 0 Z " fill="#CEBFAE" transform="translate(792,444)"/>
<path d="M0 0 C0 1.98 0 3.96 0 6 C-1.32 6 -2.64 6 -4 6 C-4 4.68 -4 3.36 -4 2 C-1 0 -1 0 0 0 Z " fill="#CDBEAD" transform="translate(796,433)"/>
<path d="M0 0 C3.3 0 6.6 0 10 0 C8.515 1.485 8.515 1.485 7 3 C3.875 2.8125 3.875 2.8125 1 2 C0.67 1.34 0.34 0.68 0 0 Z " fill="#34302B" transform="translate(719,769)"/>
<path d="M0 0 C2.97 0.33 5.94 0.66 9 1 C9 1.33 9 1.66 9 2 C5.7 2.33 2.4 2.66 -1 3 C-0.67 2.01 -0.34 1.02 0 0 Z " fill="#CFC0AF" transform="translate(833,783)"/>
</svg>
